<svg width="93" height="19" viewBox="0 0 93 19" fill="none" xmlns="http://www.w3.org/2000/svg">
<path d="M8.29191 3.09224C8.60816 2.11893 9.98512 2.11894 10.3014 3.09224L11.1467 5.69384C11.2881 6.12912 11.6937 6.42382 12.1514 6.42382L14.8869 6.42382C15.9103 6.42382 16.3358 7.73339 15.5079 8.33493L13.2948 9.94281C12.9245 10.2118 12.7696 10.6887 12.911 11.1239L13.7563 13.7255C14.0726 14.6988 12.9586 15.5082 12.1306 14.9067L9.9176 13.2988C9.54733 13.0298 9.04595 13.0298 8.67568 13.2988L6.46263 14.9067C5.63469 15.5082 4.5207 14.6988 4.83694 13.7255L5.68225 11.1239C5.82368 10.6887 5.66875 10.2118 5.29848 9.94281L3.08543 8.33493C2.25748 7.73339 2.68299 6.42382 3.70639 6.42382L6.44187 6.42382C6.89954 6.42382 7.30517 6.12912 7.4466 5.69384L8.29191 3.09224Z" fill="#1361CF"/>
<path d="M26.8866 3.09248C27.2029 2.11918 28.5799 2.11918 28.8961 3.09249L29.7414 5.69409C29.8828 6.12936 30.2885 6.42406 30.7461 6.42406L33.4816 6.42406C34.505 6.42406 34.9305 7.73364 34.1026 8.33518L31.8895 9.94305C31.5193 10.2121 31.3643 10.6889 31.5058 11.1242L32.3511 13.7258C32.6673 14.6991 31.5533 15.5084 30.7254 14.9069L28.5123 13.299C28.1421 13.03 27.6407 13.03 27.2704 13.299L25.0574 14.9069C24.2294 15.5084 23.1154 14.6991 23.4317 13.7258L24.277 11.1242C24.4184 10.6889 24.2635 10.2121 23.8932 9.94305L21.6802 8.33517C20.8522 7.73364 21.2777 6.42406 22.3011 6.42406L25.0366 6.42406C25.4943 6.42406 25.8999 6.12936 26.0413 5.69408L26.8866 3.09248Z" fill="#1361CF"/>
<path d="M45.4777 3.09248C45.7939 2.11918 47.1709 2.11918 47.4872 3.09249L48.3325 5.69409C48.4739 6.12936 48.8795 6.42406 49.3372 6.42406L52.0727 6.42406C53.0961 6.42406 53.5216 7.73364 52.6936 8.33518L50.4806 9.94305C50.1103 10.2121 49.9554 10.6889 50.0968 11.1242L50.9421 13.7258C51.2584 14.6991 50.1444 15.5084 49.3164 14.9069L47.1034 13.299C46.7331 13.03 46.2317 13.03 45.8615 13.299L43.6484 14.9069C42.8205 15.5084 41.7065 14.6991 42.0227 13.7258L42.868 11.1242C43.0095 10.6889 42.8545 10.2121 42.4843 9.94305L40.2712 8.33517C39.4433 7.73364 39.8688 6.42406 40.8922 6.42406L43.6277 6.42406C44.0853 6.42406 44.491 6.12936 44.6324 5.69408L45.4777 3.09248Z" fill="#1361CF"/>
<path d="M64.0724 3.09248C64.3887 2.11918 65.7656 2.11918 66.0819 3.09249L66.9272 5.69409C67.0686 6.12936 67.4743 6.42406 67.9319 6.42406L70.6674 6.42406C71.6908 6.42406 72.1163 7.73364 71.2884 8.33518L69.0753 9.94305C68.705 10.2121 68.5501 10.6889 68.6915 11.1242L69.5369 13.7258C69.8531 14.6991 68.7391 15.5084 67.9112 14.9069L65.6981 13.299C65.3278 13.03 64.8265 13.03 64.4562 13.299L62.2431 14.9069C61.4152 15.5084 60.3012 14.6991 60.6175 13.7258L61.4628 11.1242C61.6042 10.6889 61.4493 10.2121 61.079 9.94305L58.8659 8.33517C58.038 7.73364 58.4635 6.42406 59.4869 6.42406L62.2224 6.42406C62.6801 6.42406 63.0857 6.12936 63.2271 5.69408L64.0724 3.09248Z" fill="#1361CF"/>
<path d="M82.6635 3.09248C82.9797 2.11918 84.3567 2.11918 84.673 3.09249L85.5183 5.69409C85.6597 6.12936 86.0653 6.42406 86.523 6.42406L89.2585 6.42406C90.2819 6.42406 90.7074 7.73364 89.8794 8.33518L87.6664 9.94305C87.2961 10.2121 87.1412 10.6889 87.2826 11.1242L88.1279 13.7258C88.4442 14.6991 87.3302 15.5084 86.5022 14.9069L84.2892 13.299C83.9189 13.03 83.4175 13.03 83.0473 13.299L80.8342 14.9069C80.0063 15.5084 78.8923 14.6991 79.2085 13.7258L80.0538 11.1242C80.1953 10.6889 80.0403 10.2121 79.6701 9.94305L77.457 8.33517C76.6291 7.73364 77.0546 6.42406 78.078 6.42406L80.8135 6.42406C81.2711 6.42406 81.6768 6.12936 81.8182 5.69408L82.6635 3.09248Z" fill="#1361CF"/>
</svg>
