<svg width="40" height="40" viewBox="0 0 40 40" fill="none" xmlns="http://www.w3.org/2000/svg">
<path d="M0 10C0 4.47715 4.47715 0 10 0H30C35.5228 0 40 4.47715 40 10V30C40 35.5228 35.5228 40 30 40H10C4.47715 40 0 35.5228 0 30V10Z" fill="#FBBC02"/>
<path d="M20 12.5C17.0975 12.5 14.75 14.8475 14.75 17.75C14.75 21.6875 20 27.5 20 27.5C20 27.5 25.25 21.6875 25.25 17.75C25.25 14.8475 22.9025 12.5 20 12.5ZM20 19.625C18.965 19.625 18.125 18.785 18.125 17.75C18.125 16.715 18.965 15.875 20 15.875C21.035 15.875 21.875 16.715 21.875 17.75C21.875 18.785 21.035 19.625 20 19.625Z" fill="#1361CF"/>
</svg>
